<svg xmlns="http://www.w3.org/2000/svg" width="512" height="512" viewBox="0 0 512 512">
  <defs>
    <linearGradient id="bg" x1="0" y1="0" x2="0" y2="1">
      <stop offset="0" stop-color="#1a1a2e"/>
      <stop offset="1" stop-color="#0f0f1f"/>
    </linearGradient>
    <linearGradient id="fur" x1="0" y1="0" x2="0" y2="1">
      <stop offset="0" stop-color="#ffa53a"/>
      <stop offset="1" stop-color="#ff7a1a"/>
    </linearGradient>
  </defs>
  <rect width="512" height="512" rx="112" fill="url(#bg)"/>
  <!-- ears -->
  <circle cx="168" cy="156" r="46" fill="url(#fur)" stroke="#1a0f04" stroke-width="10"/>
  <circle cx="344" cy="156" r="46" fill="url(#fur)" stroke="#1a0f04" stroke-width="10"/>
  <circle cx="168" cy="160" r="20" fill="#ff9aa0"/>
  <circle cx="344" cy="160" r="20" fill="#ff9aa0"/>
  <!-- head -->
  <rect x="146" y="150" width="220" height="210" rx="86" fill="url(#fur)" stroke="#1a0f04" stroke-width="12"/>
  <!-- belly/muzzle -->
  <ellipse cx="256" cy="300" rx="78" ry="58" fill="#ffe9c8"/>
  <!-- stripes -->
  <rect x="196" y="168" width="14" height="52" rx="7" fill="#1a0f04"/>
  <rect x="302" y="168" width="14" height="52" rx="7" fill="#1a0f04"/>
  <rect x="160" y="214" width="40" height="13" rx="6" fill="#1a0f04"/>
  <rect x="312" y="214" width="40" height="13" rx="6" fill="#1a0f04"/>
  <!-- eyes -->
  <circle cx="212" cy="248" r="20" fill="#0a2a14"/>
  <circle cx="300" cy="248" r="20" fill="#0a2a14"/>
  <circle cx="218" cy="242" r="6" fill="#fff"/>
  <circle cx="306" cy="242" r="6" fill="#fff"/>
  <!-- nose + mouth -->
  <path d="M236 292 h40 l-20 18 z" fill="#ff7a8a" stroke="#1a0f04" stroke-width="6" stroke-linejoin="round"/>
  <path d="M256 312 v16 M256 328 q-22 0 -28 -14 M256 328 q22 0 28 -14" fill="none" stroke="#1a0f04" stroke-width="7" stroke-linecap="round"/>
  <!-- label -->
  <text x="256" y="436" text-anchor="middle" font-family="Verdana, sans-serif" font-weight="bold" font-size="58" fill="#ffd700" letter-spacing="4">P0</text>
</svg>
